Coordinates
version=1
nRows=7
nColumns=40
inDegrees=yes

Units are S.I. units (second, meters, Newtons, ...)
Angles are in degrees.

endheader
time	pelvis_tilt	pelvis_list	pelvis_rotation	pelvis_tx	pelvis_ty	pelvis_tz	hip_flexion_r	hip_adduction_r	hip_rotation_r	knee_angle_r	knee_angle_r_beta	ankle_angle_r	subtalar_angle_r	mtp_angle_r	hip_flexion_l	hip_adduction_l	hip_rotation_l	knee_angle_l	knee_angle_l_beta	ankle_angle_l	subtalar_angle_l	mtp_angle_l	lumbar_extension	lumbar_bending	lumbar_rotation	arm_flex_r	arm_add_r	arm_rot_r	elbow_flex_r	pro_sup_r	wrist_flex_r	wrist_dev_r	arm_flex_l	arm_add_l	arm_rot_l	elbow_flex_l	pro_sup_l	wrist_flex_l	wrist_dev_l
      0.00000000	     -5.85857477	      3.09222099	      5.32748688	     -1.10918672	      0.95425085	     -0.88789302	      4.39135079	     -0.28747207	    -18.85811056	    -11.64740758	     -0.20328561	      8.20603212	      3.50079102	     -4.41154348	     24.77051326	      5.75378036	     18.60993079	    -29.35057749	     -0.51226421	     -0.66092284	     10.73770112	      0.09368829	     -0.41516667	     -2.24269473	      4.80310146	      6.55747646	    -13.75754244	    -14.66058811	     18.64845911	     89.95437384	      0.00000000	      0.00000000	     -6.22500650	     13.47233991	     20.10404965	     15.73114124	     89.95437384	      0.00000000	      0.00000000
      0.01000000	     -5.97240720	      3.00895466	      5.05759673	     -1.10257425	      0.95357862	     -0.88864688	      3.96667992	     -0.17211664	    -18.98875050	    -11.37326831	     -0.19850098	      8.46004916	      3.53944284	     -4.52248716	     25.54271836	      5.86807339	     18.72449867	    -28.17780859	     -0.49179554	     -0.57904624	     10.54650405	      0.15743864	     -0.25112128	     -2.09774252	      4.93742188	      7.03155503	    -13.73796566	    -14.56120422	     18.72772026	     89.95437384	      0.00000000	      0.00000000	     -6.38966512	     13.45008400	     20.10367629	     15.55375834	     89.95437384	      0.00000000	      0.00000000
      0.02000000	     -5.49887296	      3.42153867	      4.66071380	     -1.09537090	      0.95406398	     -0.88925456	      2.68270292	     -0.52732404	    -18.82111971	    -10.78244860	     -0.18818923	      8.47401139	      4.03404751	     -5.24967277	     25.16806149	      5.41329119	     18.61035633	    -26.29787179	     -0.45898445	     -1.06955959	      9.52937569	      0.59020148	     -0.83718591	     -2.49877989	      5.07116968	      7.55488026	    -13.66655350	    -13.69355250	     18.90468914	     89.95437384	      0.00000000	      0.00000000	     -6.47631072	     13.42978818	     20.84237422	     15.36595227	     89.95437384	      0.00000000	      0.00000000
      0.03000000	     -5.54730138	      3.44032548	      4.42259733	     -1.08861037	      0.95334120	     -0.89002929	      2.18685969	     -0.53187821	    -18.72124540	    -10.59677397	     -0.18494860	      8.75235123	      4.18874708	     -5.50210375	     25.71415506	      5.35492593	     18.38766417	    -24.97564755	     -0.43590728	     -1.37323919	      8.86020081	      0.72636673	     -0.79013203	     -2.49417400	      5.08854605	      7.98877856	    -13.56772774	    -13.51442482	     19.18100820	     89.95437384	      0.00000000	      0.00000000	     -6.66403945	     13.41512630	     20.94853871	     15.21737382	     89.95437384	      0.00000000	      0.00000000
      0.04000000	     -5.60224581	      3.34869254	      4.17700049	     -1.08166891	      0.95244458	     -0.89061865	      1.74462712	     -0.42333534	    -18.86563574	    -10.48374632	     -0.18297589	      8.99627395	      4.17417153	     -5.58534616	     26.37620723	      5.51864506	     18.50572132	    -23.97540374	     -0.41844973	     -1.34687010	      8.62392984	      0.77794107	     -0.71721666	     -2.41002147	      5.19057648	      8.36096864	    -13.43338885	    -13.32966805	     19.44638069	     89.95437384	      0.00000000	      0.00000000	     -6.80612922	     13.41035350	     20.94036643	     15.06818684	     89.95437384	      0.00000000	      0.00000000
      0.05000000	     -5.49670911	      3.53019122	      3.77865521	     -1.07513399	      0.95197580	     -0.89127615	      1.13958438	     -0.60260933	    -18.32118736	    -10.36714844	     -0.18094087	      9.25667130	      4.38726905	     -5.84180271	     26.46194568	      5.25079560	     18.04468863	    -22.20943600	     -0.38762778	     -1.99427795	      7.58892224	      1.02273165	     -0.93809592	     -2.58031920	      5.37188838	      8.82485548	    -13.36937557	    -12.64230733	     19.78038961	     89.95437384	      0.00000000	      0.00000000	     -6.81792382	     13.40020459	     21.11149282	     14.80947420	     89.95437384	      0.00000000	      0.00000000
      0.06000000	     -5.45814942	      3.50873812	      3.53581679	     -1.06791642	      0.95107013	     -0.89206078	      0.56620973	     -0.59148363	    -18.51610958	    -10.23171390	     -0.17857710	      9.53659824	      4.36698951	     -5.96600106	     26.91305967	      5.32877747	     18.25654251	    -21.19301335	     -0.36988786	     -1.99470325	      7.29977270	      1.09655186	     -0.97097464	     -2.55112527	      5.41536594	      9.19449112	    -13.23410441	    -12.33927511	     20.06656385	     89.95437384	      0.00000000	      0.00000000	     -6.93717259	     13.38966805	     21.14359757	     14.58849648	     89.95437384	      0.00000000	      0.00000000
